<?xml version="1.0" standalone="no"?>
<!DOCTYPE svg PUBLIC "-//W3C//DTD SVG 20010904//EN"
 "http://www.w3.org/TR/2001/REC-SVG-20010904/DTD/svg10.dtd">
<svg version="1.0" xmlns="http://www.w3.org/2000/svg"
 width="3264.000000pt" height="3264.000000pt" viewBox="0 0 3264.000000 3264.000000"
 preserveAspectRatio="xMidYMid meet">

<g transform="translate(0.000000,3264.000000) scale(0.100000,-0.100000)"
fill="#000000" stroke="none">
<path d="M16255 25712 c-94 -8 -95 -13 -86 -272 6 -172 10 -205 24 -215 18
-13 401 -31 430 -20 27 11 29 39 17 243 -13 208 -23 248 -63 257 -26 5 -278
11 -322 7z"/>
<path d="M15495 25349 c-38 -4 -171 -7 -295 -8 -203 -1 -226 -3 -236 -18 -12
-22 -4 -591 9 -611 7 -11 64 -13 275 -11 147 2 282 0 299 -5 30 -7 34 -5 43
19 6 15 10 146 10 315 0 344 5 330 -105 319z"/>
<path d="M17061 25316 c-16 -19 -16 -779 0 -807 11 -21 53 -25 108 -9 47 13
77 13 438 0 243 -9 326 -10 337 -1 24 20 25 78 12 440 -13 348 -14 355 -36
373 -21 17 -51 18 -435 18 -346 0 -414 -2 -424 -14z"/>
<path d="M18721 24802 c-7 -14 -11 -109 -11 -281 0 -300 -1 -295 77 -279 26 5
146 10 265 10 203 0 218 1 234 20 17 18 19 43 19 260 1 300 14 278 -170 278
-73 0 -193 3 -267 6 -131 7 -136 6 -147 -14z"/>
<path d="M13842 24800 c-180 -4 -215 -7 -225 -21 -10 -13 -15 -347 -8 -511 2
-53 31 -58 292 -52 128 3 240 9 250 14 24 13 29 73 29 326 0 252 4 239 -80
245 -25 2 -141 2 -258 -1z"/>
<path d="M15690 24065 c-10 -12 -11 -46 -7 -138 4 -67 13 -252 21 -412 9 -159
16 -327 16 -373 0 -56 5 -93 16 -114 15 -30 17 -30 67 -24 125 16 244 18 279
7 29 -10 38 -19 44 -44 4 -18 6 -920 6 -2006 l-1 -1974 56 -51 c31 -28 77 -73
102 -100 25 -28 60 -64 76 -81 17 -17 37 -42 46 -55 19 -29 34 -21 55 28 14
32 17 116 21 622 8 1115 -4 2959 -23 3421 -8 189 0 235 43 245 14 4 87 4 162
1 77 -4 142 -3 150 2 25 16 29 107 30 582 1 341 -2 458 -11 467 -9 9 -150 12
-574 12 -491 0 -563 -2 -574 -15z"/>
<path d="M12367 23747 c-28 -18 -29 -20 -21 -65 4 -26 8 -192 9 -370 0 -309 1
-324 19 -338 30 -22 674 -21 716 1 l30 16 0 368 c0 338 -1 369 -17 384 -16 13
-65 16 -362 19 -318 3 -346 2 -374 -15z"/>
<path d="M19730 23741 l-25 -7 -3 -376 c-2 -332 0 -378 14 -392 13 -14 60 -16
374 -16 l359 0 15 22 c14 19 16 73 16 384 0 337 -1 362 -18 377 -17 15 -56 17
-363 16 -189 -1 -355 -4 -369 -8z"/>
<path d="M17833 23614 c-37 -9 -41 -24 -32 -104 17 -147 28 -399 28 -656 1
-231 3 -263 18 -275 12 -11 56 -14 179 -14 143 0 165 -2 181 -18 17 -17 18
-54 18 -615 0 -328 1 -861 3 -1183 2 -562 3 -588 21 -610 l19 -24 74 37 c48
24 94 38 133 42 33 4 67 13 75 22 13 13 15 104 15 702 0 378 -2 895 -5 1149
-5 423 -4 464 12 479 14 14 37 17 157 15 132 -1 141 0 165 21 l25 23 7 416 c8
470 3 563 -28 580 -21 11 -1019 23 -1065 13z"/>
<path d="M14915 23189 c-68 -11 -739 -16 -847 -6 -84 8 -87 8 -99 -15 -10 -17
-13 -139 -16 -495 l-3 -472 22 -12 c15 -8 47 -9 107 -4 136 13 169 11 188 -8
17 -17 18 -78 23 -955 5 -1018 3 -981 60 -1009 14 -6 43 -21 65 -33 82 -42
124 -60 153 -66 26 -5 31 -3 41 27 8 23 11 309 11 1014 0 939 1 983 18 998 16
14 44 17 186 17 125 0 176 4 202 15 35 14 36 16 29 52 -3 21 -8 200 -11 398
-6 526 -5 509 -33 539 -14 14 -29 25 -35 25 -6 -1 -33 -5 -61 -10z"/>
<path d="M11558 22290 c-157 -3 -290 -9 -295 -13 -4 -5 -8 -175 -7 -378 1
-351 2 -371 20 -388 17 -17 31 -18 164 -10 80 4 231 8 335 8 161 1 194 4 214
18 l24 16 -7 216 c-15 506 -16 518 -43 530 -13 6 -45 10 -71 9 -26 -1 -176 -5
-334 -8z"/>
<path d="M12635 22288 c-32 -18 -35 -28 -35 -140 0 -99 2 -109 24 -135 24 -27
28 -28 107 -25 95 2 147 23 167 65 8 16 14 68 15 122 3 123 1 124 -148 124
-64 0 -118 -4 -130 -11z"/>
<path d="M20819 22288 c-11 -4 -23 -18 -28 -30 -4 -13 -6 -180 -3 -372 4 -324
6 -350 23 -367 18 -18 39 -19 307 -19 158 0 310 -3 339 -6 50 -6 52 -6 68 25
14 28 16 73 13 381 -3 334 -4 350 -23 369 -19 18 -39 20 -348 23 -181 2 -337
0 -348 -4z"/>
<path d="M17700 21995 c-34 -10 -146 -14 -440 -14 -336 -1 -399 -3 -417 -16
l-22 -15 4 -466 c2 -380 5 -468 16 -475 8 -5 78 -9 155 -9 124 0 145 -2 165
-19 l23 -19 -2 -553 c-1 -305 -5 -618 -8 -697 -6 -128 -5 -144 11 -162 25 -27
37 -25 84 14 23 19 56 38 73 41 60 13 158 57 168 75 6 11 7 254 4 647 l-6 628
21 23 c20 20 31 22 126 22 122 0 153 10 159 54 8 53 15 900 7 926 -5 20 -14
25 -41 26 -19 1 -55 -4 -80 -11z"/>
<path d="M19075 21759 c-20 -10 -20 -19 -19 -382 l2 -372 23 -6 c13 -4 194 -7
402 -8 l377 -1 12 25 c8 17 8 118 1 371 -9 345 -9 347 -32 365 -22 18 -46 19
-385 18 -212 0 -369 -4 -381 -10z"/>
<path d="M13263 21610 c-157 -4 -185 -7 -200 -23 -16 -16 -18 -46 -21 -326 -2
-242 0 -310 10 -318 20 -17 673 -22 689 -6 10 10 9 47 0 170 -7 87 -16 231
-20 320 -5 109 -12 167 -21 178 -14 17 -14 17 -437 5z"/>
<path d="M15100 21443 c-25 -3 -49 -8 -54 -13 -14 -14 -14 -681 0 -687 6 -2
31 1 55 7 89 23 94 23 127 -5 32 -27 32 -27 32 -123 0 -54 -7 -137 -16 -187
-12 -65 -18 -175 -21 -393 -6 -348 -7 -341 78 -366 54 -16 120 -54 174 -99
l34 -28 16 25 c12 18 19 66 26 183 15 259 29 479 39 633 5 80 10 182 10 228 0
49 6 97 14 117 13 31 19 35 54 35 25 0 46 7 60 20 25 24 24 10 26 394 l1 238
-27 14 c-21 11 -84 14 -305 12 -153 -1 -298 -3 -323 -5z"/>
<path d="M22290 20744 c-30 -7 -118 -18 -195 -23 -144 -9 -152 -11 -220 -41
-22 -10 -87 -23 -144 -30 -57 -6 -125 -20 -151 -30 -26 -10 -97 -23 -159 -29
-87 -8 -121 -16 -154 -35 -25 -15 -73 -29 -121 -36 -43 -6 -98 -20 -121 -30
-23 -10 -85 -23 -136 -30 -62 -7 -110 -19 -140 -35 -25 -13 -75 -29 -110 -35
-35 -6 -80 -20 -100 -30 -20 -10 -76 -25 -123 -33 -49 -9 -101 -25 -122 -38
-20 -12 -59 -26 -87 -30 -27 -5 -67 -18 -89 -29 -22 -11 -73 -27 -114 -35 -41
-8 -86 -23 -100 -34 -14 -11 -51 -25 -82 -31 -31 -7 -70 -20 -87 -30 -16 -10
-57 -25 -89 -34 -33 -8 -72 -24 -86 -35 -15 -11 -47 -25 -71 -31 -24 -6 -56
-20 -70 -30 -14 -10 -45 -25 -70 -33 -24 -8 -70 -29 -103 -46 -32 -17 -66 -31
-75 -31 -9 0 -32 -11 -52 -24 -19 -13 -55 -30 -80 -36 -24 -6 -53 -20 -65 -31
-11 -10 -43 -26 -70 -34 -28 -8 -63 -26 -79 -39 -15 -13 -43 -27 -61 -31 -19
-3 -46 -17 -62 -30 -16 -13 -48 -28 -71 -34 -23 -5 -59 -20 -79 -34 -20 -14
-48 -28 -62 -32 -14 -4 -36 -18 -50 -31 -14 -12 -43 -30 -65 -40 -22 -9 -53
-27 -68 -40 -16 -13 -34 -24 -41 -24 -7 0 -21 -9 -30 -19 -10 -11 -41 -31 -69
-46 -29 -14 -77 -43 -107 -65 -30 -22 -75 -51 -100 -65 -25 -14 -61 -37 -80
-50 -19 -13 -48 -34 -65 -45 -16 -11 -46 -32 -65 -45 -19 -14 -48 -33 -64 -44
-16 -11 -75 -62 -130 -114 -56 -52 -123 -113 -151 -136 -84 -70 -184 -173
-221 -226 -62 -90 -85 -120 -95 -124 -6 -2 -19 -17 -29 -34 -24 -38 -111 -138
-214 -242 -43 -44 -89 -94 -102 -111 l-24 -31 -5 -2629 c-3 -1446 -6 -2692 -8
-2770 -2 -146 4 -174 41 -174 18 0 92 76 137 141 45 64 124 147 174 182 24 16
60 48 79 71 56 64 181 182 242 229 30 23 69 56 86 72 17 17 55 46 84 65 29 19
66 46 84 60 17 14 63 46 101 70 39 24 86 57 105 72 19 15 40 28 46 28 6 0 17
7 25 16 7 8 36 27 63 41 28 14 55 32 59 40 5 8 32 25 60 38 29 14 72 41 97 60
25 20 58 43 74 53 16 9 41 27 56 40 16 12 44 29 62 37 19 7 41 22 49 31 8 9
37 28 64 41 53 26 118 63 176 100 18 13 41 23 49 23 9 0 40 16 70 35 30 19 59
35 66 35 6 0 28 11 48 25 20 13 62 32 94 41 31 9 75 27 98 40 22 13 48 24 56
24 8 0 39 13 69 29 30 15 70 32 89 36 19 4 58 20 85 35 28 15 68 33 90 40 22
7 49 19 60 26 12 8 56 20 100 29 46 8 93 25 114 39 20 13 51 27 70 31 18 4 54
18 80 31 25 13 81 28 125 34 45 6 93 19 112 30 18 12 68 27 111 36 43 8 101
23 129 34 28 10 95 23 148 29 62 7 117 20 149 35 33 15 89 28 152 36 55 6 134
20 175 31 41 11 140 24 220 30 80 5 188 19 240 30 140 30 415 42 815 36 283
-5 361 -9 410 -23 99 -27 126 -32 224 -43 52 -6 123 -21 158 -33 83 -30 97
-22 101 57 5 89 -14 243 -37 312 -15 44 -24 108 -31 222 -7 108 -17 180 -30
223 -14 42 -24 114 -30 213 -11 170 -14 188 -41 267 -10 32 -24 113 -30 180
-6 68 -21 166 -34 218 -14 56 -28 154 -34 240 -6 100 -16 164 -30 204 -16 44
-24 103 -31 221 -11 177 -14 200 -41 295 -10 36 -23 131 -29 212 -7 89 -18
169 -29 200 -20 59 -27 105 -41 293 -6 76 -18 156 -30 193 -15 47 -23 114 -30
249 -6 102 -17 214 -25 248 -27 118 -36 190 -45 380 -5 105 -18 253 -29 330
-12 77 -28 231 -36 343 -9 121 -23 232 -34 277 -13 49 -23 141 -31 277 -14
238 -29 327 -65 374 -14 19 -29 34 -33 33 -4 -1 -32 -7 -62 -15z m-761 -1357
c6 -8 15 -54 21 -103 5 -49 20 -152 33 -229 13 -77 21 -147 17 -155 -17 -32
-152 -78 -266 -90 -67 -8 -130 -21 -164 -35 -30 -12 -90 -27 -132 -34 -42 -6
-95 -20 -118 -32 -23 -12 -75 -25 -123 -31 -45 -5 -99 -18 -120 -29 -22 -11
-71 -26 -110 -35 -39 -8 -85 -24 -104 -35 -18 -11 -70 -27 -115 -35 -45 -8
-92 -21 -105 -29 -12 -8 -53 -22 -90 -31 -38 -8 -82 -24 -99 -34 -17 -11 -58
-26 -91 -34 -33 -7 -74 -23 -89 -34 -16 -12 -49 -26 -74 -32 -25 -7 -54 -20
-66 -31 -11 -11 -47 -24 -80 -30 -32 -6 -86 -24 -119 -39 -33 -15 -76 -31 -95
-35 -19 -4 -51 -17 -71 -30 -20 -13 -53 -27 -73 -30 -20 -4 -53 -19 -74 -32
-20 -14 -54 -32 -75 -39 -21 -7 -49 -22 -63 -33 -13 -11 -42 -22 -63 -26 -21
-3 -63 -22 -92 -41 -29 -19 -58 -34 -65 -34 -6 0 -23 -9 -37 -20 -14 -11 -45
-27 -69 -36 -23 -8 -52 -23 -63 -34 -11 -10 -41 -28 -66 -39 -25 -11 -54 -29
-64 -41 -10 -11 -23 -20 -28 -20 -6 0 -26 -12 -45 -27 -50 -38 -131 -92 -172
-114 -40 -23 -92 -57 -134 -91 -16 -13 -44 -32 -62 -43 -37 -23 -146 -104
-209 -155 -71 -58 -98 -79 -145 -110 -98 -65 -117 -79 -167 -129 -31 -31 -61
-51 -74 -51 -28 0 -59 27 -59 52 0 34 -39 158 -58 186 -50 71 -59 175 -19 235
23 35 355 361 403 396 23 16 60 39 82 50 22 11 42 27 45 34 3 8 27 22 53 31
26 9 54 23 63 31 14 14 149 103 288 190 26 17 67 37 90 46 23 9 54 26 69 38
15 11 33 21 40 21 7 0 28 13 47 29 18 16 46 33 63 37 16 3 52 19 79 34 28 15
63 30 78 34 16 4 45 18 66 31 20 14 61 32 91 41 30 9 62 22 70 30 9 7 36 21
60 29 25 9 61 26 80 39 19 13 50 27 68 31 19 4 59 20 89 36 30 16 61 29 69 29
7 0 43 16 80 35 36 19 73 35 82 35 9 0 44 14 77 30 33 17 68 30 78 30 10 0 44
13 75 30 31 16 79 34 105 40 27 6 66 19 87 30 21 10 65 24 98 29 34 5 81 21
104 35 24 13 72 30 107 36 36 6 82 20 102 31 21 10 70 24 111 30 40 6 101 22
135 35 34 14 101 29 150 35 48 5 120 20 158 33 39 13 95 27 125 31 30 4 75 18
100 31 25 13 81 30 125 38 44 8 98 24 120 35 45 24 107 28 124 8z m129 -1320
c6 -7 16 -44 23 -82 6 -39 16 -81 21 -94 4 -13 15 -85 24 -160 11 -106 12
-141 3 -158 -22 -40 -91 -63 -223 -74 -92 -8 -134 -16 -176 -35 -31 -14 -97
-31 -150 -39 -52 -7 -112 -21 -134 -30 -21 -9 -79 -23 -129 -31 -50 -8 -105
-24 -122 -34 -18 -11 -70 -27 -116 -36 -46 -8 -94 -22 -107 -30 -13 -9 -60
-22 -105 -31 -45 -8 -97 -23 -116 -34 -18 -11 -65 -26 -103 -34 -39 -9 -82
-24 -97 -34 -14 -11 -47 -22 -73 -26 -26 -4 -77 -22 -114 -41 -37 -19 -77 -34
-89 -34 -11 0 -37 -11 -56 -25 -20 -13 -59 -30 -85 -36 -27 -7 -73 -25 -103
-41 -30 -15 -66 -28 -81 -28 -15 0 -49 -12 -76 -26 -27 -15 -71 -33 -99 -41
-27 -8 -59 -23 -70 -34 -11 -10 -40 -25 -63 -33 -24 -9 -55 -24 -70 -35 -15
-10 -47 -24 -72 -31 -25 -6 -56 -22 -70 -35 -14 -13 -44 -28 -67 -34 -23 -7
-45 -16 -48 -21 -4 -6 -32 -24 -63 -41 -31 -16 -86 -48 -122 -70 -36 -21 -84
-48 -107 -58 -22 -11 -45 -26 -50 -33 -10 -18 -85 -71 -140 -100 -24 -12 -43
-25 -43 -29 0 -7 -52 -43 -136 -95 -19 -11 -44 -30 -56 -41 -13 -11 -37 -27
-53 -36 -17 -8 -39 -24 -49 -36 -11 -12 -24 -21 -30 -21 -6 0 -32 -17 -58 -37
-26 -21 -63 -49 -84 -63 -20 -14 -53 -39 -73 -56 -20 -17 -52 -41 -71 -54 -19
-13 -58 -45 -87 -72 -28 -26 -57 -48 -63 -48 -6 0 -27 -17 -48 -39 -20 -21
-52 -43 -70 -49 -30 -10 -33 -9 -46 16 -7 15 -16 49 -19 75 -4 26 -18 67 -31
90 -13 23 -30 62 -36 87 -7 24 -23 57 -36 73 -38 45 -33 97 13 148 78 86 211
210 290 269 105 79 162 122 202 152 24 18 58 46 75 62 17 16 43 34 57 40 24
11 53 31 122 87 18 14 52 35 77 46 25 11 51 27 59 36 7 10 19 17 25 17 6 0 27
13 46 28 19 16 56 36 82 46 26 10 50 21 53 26 10 16 143 100 177 112 18 6 42
19 53 28 11 10 36 25 55 35 19 10 42 24 51 32 10 8 40 20 69 28 29 8 62 22 74
33 29 27 183 98 227 106 21 4 48 16 63 27 14 11 51 29 82 39 31 11 63 25 70
31 7 6 44 19 81 28 37 10 86 30 107 44 21 15 46 27 56 27 9 0 37 11 62 24 25
13 70 29 101 36 30 6 75 24 99 39 23 16 61 32 83 36 21 3 56 15 77 26 20 10
72 24 115 30 49 6 94 20 121 35 23 14 70 30 104 35 33 5 78 19 100 30 22 11
75 26 118 34 43 8 100 23 126 35 26 12 90 28 143 34 53 7 111 21 130 30 18 10
77 24 130 32 53 8 114 24 135 35 22 12 76 24 125 30 101 12 123 17 176 40 47
22 88 24 103 6z m146 -1378 c31 -14 33 -25 50 -217 9 -103 21 -175 34 -209 24
-64 21 -68 -78 -89 -40 -8 -90 -24 -111 -35 -27 -13 -76 -23 -152 -30 -67 -6
-129 -18 -155 -29 -24 -11 -79 -26 -123 -35 -43 -8 -96 -23 -118 -34 -21 -11
-78 -25 -127 -31 -100 -12 -116 -16 -162 -36 -17 -8 -70 -21 -115 -28 -46 -8
-102 -23 -125 -35 -23 -11 -73 -26 -113 -31 -91 -13 -119 -20 -144 -36 -11 -7
-58 -22 -104 -33 -47 -12 -92 -28 -101 -36 -9 -8 -49 -21 -89 -30 -40 -8 -85
-24 -100 -34 -14 -10 -44 -24 -66 -31 -22 -7 -56 -23 -75 -35 -19 -13 -53 -27
-75 -30 -22 -4 -56 -18 -75 -31 -19 -13 -55 -30 -79 -39 -24 -8 -58 -24 -76
-35 -18 -11 -54 -23 -81 -26 -27 -3 -60 -14 -74 -23 -39 -27 -216 -111 -232
-111 -9 0 -26 -8 -39 -19 -48 -37 -161 -101 -199 -112 -22 -7 -51 -25 -66 -40
-15 -16 -33 -29 -39 -29 -6 0 -27 -12 -46 -26 -19 -14 -48 -32 -66 -39 -18 -8
-60 -36 -93 -64 -34 -28 -75 -58 -93 -67 -18 -9 -46 -29 -64 -43 -33 -27 -45
-36 -203 -150 -117 -85 -199 -150 -408 -322 -34 -28 -99 -78 -144 -111 -45
-32 -85 -63 -88 -67 -3 -4 -15 -13 -27 -20 -19 -10 -24 -8 -40 15 -10 14 -28
37 -39 52 -12 15 -25 38 -29 52 -10 32 -90 177 -115 210 -35 44 -14 85 103
202 216 217 406 387 433 388 5 0 23 14 39 30 16 17 34 30 41 30 7 0 33 16 58
35 26 19 49 35 52 35 4 0 21 12 39 28 19 15 64 45 101 67 37 22 79 52 93 67
14 15 42 34 61 43 19 9 62 34 95 56 33 22 73 47 89 57 15 9 42 27 60 39 17 12
46 29 64 37 18 8 35 22 38 30 3 8 27 23 52 32 26 10 59 28 74 40 15 12 44 28
65 35 21 6 51 22 66 35 16 13 34 24 42 24 7 0 38 13 68 29 30 16 71 34 91 41
20 6 49 22 64 35 15 12 43 26 62 30 19 4 51 17 70 30 19 12 56 28 81 34 25 6
72 24 104 41 31 16 66 30 77 30 11 0 50 13 86 29 37 16 84 32 105 36 20 4 53
20 72 35 19 15 53 30 76 34 22 4 58 15 80 26 21 11 62 25 91 31 29 7 73 22 98
35 25 13 80 28 124 35 44 6 102 19 130 29 28 11 85 26 128 34 42 8 94 24 116
35 24 12 78 25 133 31 97 11 160 23 202 39 14 6 75 17 136 25 63 9 126 24 148
36 26 13 77 24 148 31 71 7 129 20 165 35 61 26 106 30 144 13z"/>
<path d="M10482 20715 c-7 -14 -12 -41 -12 -60 0 -18 -11 -80 -25 -137 -18
-72 -28 -153 -35 -273 -11 -201 -15 -233 -40 -345 -14 -60 -23 -157 -30 -325
-5 -138 -16 -270 -25 -310 -26 -121 -34 -185 -45 -370 -6 -112 -17 -211 -30
-263 -11 -46 -25 -149 -30 -230 -8 -99 -19 -175 -35 -232 -17 -58 -28 -132
-35 -235 -7 -93 -18 -176 -31 -220 -12 -41 -24 -122 -30 -200 -12 -177 -18
-220 -40 -293 -11 -37 -23 -125 -29 -220 -7 -91 -21 -199 -35 -257 -13 -58
-28 -166 -34 -256 -7 -98 -20 -192 -35 -250 -15 -60 -26 -140 -30 -219 -4 -69
-14 -152 -22 -185 -28 -110 -32 -139 -44 -299 -6 -88 -20 -193 -31 -235 -11
-42 -26 -143 -34 -226 -8 -88 -22 -173 -34 -205 -27 -77 -37 -166 -20 -186 15
-19 69 -13 155 16 32 11 111 24 187 30 81 7 159 19 202 33 68 22 81 22 580 22
496 0 512 -1 595 -22 58 -15 139 -26 252 -32 120 -7 182 -16 222 -30 31 -11
100 -25 154 -31 67 -8 112 -19 146 -37 37 -18 75 -27 150 -34 56 -5 126 -18
156 -29 30 -11 89 -26 132 -34 42 -8 95 -24 117 -36 23 -11 77 -27 120 -34 43
-8 89 -21 102 -30 14 -8 45 -22 69 -31 25 -9 61 -27 80 -40 19 -13 58 -27 85
-30 28 -4 77 -20 110 -36 33 -16 67 -29 77 -29 9 0 31 -12 48 -26 19 -17 55
-32 96 -40 35 -8 77 -23 92 -33 15 -11 47 -25 71 -31 24 -6 56 -20 70 -31 15
-11 55 -26 90 -34 34 -9 77 -26 95 -40 18 -14 37 -25 42 -25 6 0 31 -13 56
-29 25 -16 56 -32 69 -36 13 -4 44 -20 69 -35 25 -15 86 -49 135 -75 50 -26
98 -54 108 -63 25 -22 83 -57 137 -82 25 -12 56 -32 70 -44 14 -13 41 -29 60
-36 19 -7 46 -24 61 -37 14 -12 30 -23 36 -23 6 0 24 -11 40 -23 15 -13 64
-48 108 -77 44 -29 85 -59 90 -65 6 -7 26 -20 45 -30 19 -10 51 -31 70 -46 19
-16 39 -29 43 -29 5 0 24 -12 42 -27 18 -16 56 -46 85 -68 68 -51 272 -225
314 -267 18 -18 67 -64 110 -103 44 -38 122 -115 175 -170 129 -134 183 -185
198 -185 7 0 17 10 24 21 8 16 12 722 13 2733 1 1491 6 2727 10 2746 7 34 3
39 -82 137 -49 56 -116 128 -148 161 -87 89 -194 226 -194 249 0 6 -14 22 -31
34 -18 12 -46 38 -63 56 -74 80 -194 192 -243 226 -18 12 -71 56 -119 97 -110
95 -150 126 -194 147 -20 10 -49 28 -65 41 -52 40 -99 71 -135 89 -20 10 -49
28 -65 41 -50 39 -97 69 -150 96 -27 14 -64 36 -81 49 -33 23 -69 46 -140 87
-24 14 -78 47 -120 73 -43 26 -94 51 -114 56 -20 4 -54 20 -76 35 -21 14 -43
26 -48 26 -15 0 -214 99 -221 109 -3 5 -27 17 -53 27 -26 10 -57 26 -70 35
-13 10 -47 25 -76 33 -30 9 -59 22 -65 30 -7 8 -44 27 -82 41 -38 15 -71 31
-74 35 -3 5 -31 16 -61 25 -31 9 -68 25 -83 35 -14 10 -54 26 -88 35 -35 8
-77 24 -95 34 -18 11 -49 22 -68 26 -19 4 -60 21 -90 36 -30 16 -77 32 -105
35 -27 4 -65 15 -84 26 -18 10 -63 26 -100 34 -36 8 -89 26 -117 40 -29 14
-80 29 -116 34 -35 5 -84 18 -108 29 -25 10 -76 24 -115 31 -38 7 -84 20 -102
30 -17 10 -79 26 -137 34 -57 9 -127 24 -154 35 -27 11 -78 25 -113 31 -35 6
-85 22 -110 35 -36 19 -75 26 -175 35 -71 7 -156 21 -189 31 -33 10 -103 24
-155 30 -56 7 -120 22 -155 36 -46 20 -88 27 -180 34 -66 4 -149 11 -186 14
-63 6 -65 6 -77 -20z m1018 -1375 c53 -7 102 -20 131 -35 25 -13 80 -28 121
-34 42 -6 99 -19 126 -30 28 -11 97 -25 153 -31 72 -7 113 -16 138 -31 21 -13
73 -27 123 -35 48 -7 109 -22 135 -34 26 -11 81 -25 123 -31 45 -6 86 -18 102
-30 15 -10 64 -28 110 -38 46 -11 97 -27 114 -36 17 -8 58 -20 90 -26 33 -6
75 -21 94 -34 19 -13 58 -29 85 -36 28 -7 66 -20 85 -29 19 -10 62 -25 95 -35
33 -9 71 -25 85 -35 14 -10 48 -24 75 -33 28 -8 66 -24 85 -35 19 -11 51 -23
71 -26 19 -3 50 -17 69 -31 18 -13 49 -30 68 -36 20 -7 56 -25 81 -40 25 -16
53 -29 62 -29 10 0 31 -11 47 -25 17 -14 45 -31 64 -37 18 -6 47 -21 64 -34
17 -12 49 -27 73 -34 23 -6 45 -18 48 -27 3 -8 33 -28 67 -44 34 -16 72 -36
86 -44 14 -8 36 -20 51 -27 35 -18 81 -46 148 -90 31 -21 60 -38 65 -38 4 0
23 -12 41 -27 31 -27 43 -35 140 -93 23 -14 55 -35 71 -48 16 -13 58 -42 94
-65 68 -44 124 -84 176 -127 17 -14 50 -41 74 -60 76 -63 223 -200 287 -270
77 -83 89 -122 49 -159 -14 -14 -26 -30 -26 -36 0 -7 -13 -37 -30 -68 -25 -47
-30 -68 -30 -126 0 -105 -36 -137 -96 -83 -41 37 -199 168 -220 182 -47 33
-190 140 -209 157 -10 10 -33 27 -51 38 -73 46 -121 80 -152 106 -18 16 -37
29 -43 29 -14 0 -127 68 -159 96 -14 12 -40 26 -58 32 -33 11 -62 31 -130 88
-20 17 -55 37 -77 44 -22 7 -47 18 -55 25 -8 7 -38 24 -66 38 -27 14 -56 33
-63 41 -7 9 -32 21 -55 27 -38 10 -69 27 -164 88 -20 13 -59 32 -87 42 -51 18
-123 54 -205 101 -25 14 -61 29 -80 33 -19 4 -53 17 -75 30 -22 13 -60 28 -85
35 -24 7 -55 20 -67 30 -13 10 -53 23 -90 30 -38 7 -84 22 -103 35 -19 13 -53
28 -75 35 -22 7 -58 23 -80 36 -22 12 -62 26 -88 29 -26 4 -63 17 -81 30 -18
12 -57 28 -87 35 -30 7 -72 22 -93 32 -22 11 -75 26 -118 34 -43 7 -96 23
-119 34 -22 12 -78 27 -123 35 -46 7 -97 20 -115 29 -17 9 -75 23 -129 31 -57
9 -116 25 -144 39 -26 13 -71 27 -100 31 -29 4 -80 17 -113 30 -40 15 -98 26
-173 32 -119 10 -144 21 -184 74 -16 22 -17 34 -8 127 6 62 18 121 30 149 12
27 20 67 20 98 0 70 29 109 74 101 17 -3 69 -11 116 -16z m-222 -1284 c29 -15
79 -28 132 -35 47 -6 112 -22 145 -35 33 -14 74 -26 90 -26 41 -1 110 -17 170
-40 28 -11 89 -24 137 -29 48 -6 112 -21 145 -34 32 -14 85 -28 118 -32 33 -4
85 -17 115 -30 30 -13 81 -28 113 -34 31 -6 77 -22 100 -35 25 -15 67 -28 102
-32 33 -4 90 -19 127 -35 36 -16 75 -29 85 -29 11 0 50 -16 89 -35 38 -19 76
-35 85 -35 9 0 37 -11 62 -25 25 -13 66 -29 89 -35 24 -6 60 -22 80 -36 21
-13 61 -29 90 -35 28 -6 72 -22 96 -35 25 -13 53 -24 62 -24 9 0 36 -13 61
-29 24 -16 64 -34 89 -41 55 -14 203 -84 219 -104 7 -8 37 -22 66 -31 30 -8
57 -20 60 -25 4 -6 25 -20 48 -31 23 -12 51 -30 62 -40 11 -10 41 -25 65 -34
24 -9 54 -24 65 -34 11 -10 31 -22 45 -26 14 -4 39 -20 55 -35 17 -16 49 -33
71 -39 23 -6 48 -18 55 -27 7 -8 33 -27 58 -40 118 -65 176 -103 224 -150 12
-12 38 -29 57 -39 30 -15 91 -63 205 -160 17 -14 57 -46 90 -71 78 -59 161
-134 323 -292 72 -70 143 -137 157 -149 17 -15 23 -27 18 -40 -7 -19 -86 -138
-109 -164 -7 -8 -18 -48 -24 -89 -6 -40 -15 -79 -20 -85 -15 -18 -74 4 -99 37
-12 14 -45 42 -75 62 -31 20 -58 41 -61 46 -3 5 -49 39 -103 75 -123 84 -162
112 -187 134 -11 10 -34 26 -52 35 -18 9 -43 26 -57 39 -34 31 -84 68 -122 92
-18 11 -67 44 -108 73 -42 28 -80 52 -85 52 -5 0 -30 16 -55 35 -26 19 -49 35
-53 35 -3 0 -21 11 -40 26 -18 14 -48 30 -66 36 -17 6 -42 20 -55 32 -23 21
-56 40 -162 92 -30 15 -69 38 -86 51 -17 13 -36 23 -42 23 -6 0 -24 11 -40 25
-17 14 -49 32 -72 40 -23 8 -55 26 -72 40 -16 14 -35 25 -43 25 -7 0 -38 13
-68 29 -30 16 -72 34 -93 41 -22 7 -52 22 -67 32 -16 11 -54 27 -85 35 -31 8
-71 23 -88 34 -17 10 -53 23 -81 29 -28 6 -66 22 -84 36 -18 13 -41 24 -50 24
-9 0 -42 13 -72 29 -31 16 -81 36 -111 45 -31 9 -70 25 -88 36 -19 10 -58 24
-88 31 -30 6 -69 19 -85 29 -17 11 -62 25 -102 34 -39 8 -90 24 -113 36 -23
12 -77 27 -120 35 -43 8 -96 22 -117 33 -21 11 -72 24 -113 30 -42 6 -97 21
-123 32 -26 12 -89 26 -140 32 -50 6 -117 21 -147 33 -30 13 -87 28 -126 34
-39 6 -95 22 -125 35 -33 15 -83 27 -129 31 -117 11 -144 20 -165 58 -16 30
-16 45 -7 159 7 82 18 143 31 175 11 26 22 74 26 106 5 48 24 87 41 87 2 0 26
-11 52 -24z m-142 -1385 c34 -11 113 -24 176 -30 64 -6 144 -20 178 -31 34
-11 106 -26 159 -34 53 -8 116 -24 141 -34 25 -11 85 -25 134 -32 58 -7 99
-18 117 -31 16 -11 61 -26 101 -34 40 -8 93 -23 118 -34 25 -11 83 -25 130
-31 49 -7 99 -20 117 -31 17 -11 64 -27 104 -35 40 -8 95 -26 123 -39 28 -13
71 -26 96 -30 25 -4 57 -18 72 -30 15 -13 51 -28 79 -34 29 -7 67 -20 84 -31
17 -11 56 -25 86 -31 30 -6 77 -24 105 -40 28 -16 58 -29 65 -29 8 0 41 -13
74 -30 33 -16 78 -34 101 -40 22 -5 53 -21 69 -34 15 -13 43 -27 61 -30 17 -4
44 -16 58 -27 14 -11 47 -27 73 -36 27 -9 59 -26 73 -38 14 -12 42 -28 62 -34
20 -7 42 -18 48 -26 7 -8 37 -24 68 -35 32 -12 66 -29 77 -39 11 -10 39 -27
63 -39 23 -12 61 -32 85 -44 23 -12 51 -29 62 -39 11 -10 38 -26 60 -35 22 -9
53 -27 68 -40 16 -13 34 -24 40 -24 13 0 148 -88 162 -107 6 -7 28 -20 50 -29
22 -9 54 -28 72 -43 18 -14 50 -39 73 -56 22 -16 58 -43 79 -60 21 -16 62 -48
91 -70 29 -22 66 -51 81 -65 15 -14 51 -43 80 -65 92 -71 242 -204 361 -323
64 -63 78 -83 78 -108 0 -17 -7 -38 -16 -45 -9 -8 -27 -30 -40 -49 -13 -19
-30 -44 -38 -55 -8 -11 -20 -54 -27 -95 -14 -95 -22 -110 -59 -110 -41 0 -93
31 -200 121 -14 11 -38 29 -55 40 -63 41 -155 107 -208 150 -18 14 -43 32 -56
39 -13 6 -50 33 -83 58 -83 66 -127 99 -173 130 -22 14 -54 38 -71 52 -17 14
-44 33 -60 42 -16 10 -48 30 -70 45 -23 16 -75 50 -115 77 -41 27 -91 61 -113
75 -35 24 -68 43 -185 108 -22 13 -51 33 -64 46 -13 13 -41 27 -62 31 -21 4
-53 18 -70 32 -18 13 -36 24 -41 24 -6 0 -28 14 -51 30 -22 17 -58 36 -80 44
-21 7 -55 24 -75 37 -103 66 -130 80 -186 93 -34 8 -76 23 -94 34 -18 11 -49
23 -68 27 -19 4 -52 18 -72 31 -20 13 -66 31 -102 40 -36 9 -71 22 -77 30 -6
8 -43 23 -82 35 -39 11 -80 27 -92 35 -11 7 -52 20 -91 28 -40 8 -87 24 -105
34 -19 11 -59 25 -89 32 -30 7 -80 23 -110 35 -30 12 -90 28 -134 34 -47 7
-89 19 -107 32 -15 11 -63 26 -106 34 -43 7 -100 22 -128 33 -27 10 -96 24
-153 31 -64 7 -118 19 -143 31 -21 11 -85 27 -142 35 -56 8 -127 23 -158 34
-31 10 -105 24 -165 30 -133 15 -229 53 -240 96 -9 38 3 127 27 193 11 31 22
91 25 132 3 41 12 94 21 118 17 50 33 53 129 23z"/>
<path d="M23065 19926 c-14 -20 -14 -36 -5 -107 5 -46 17 -106 25 -133 8 -26
19 -127 25 -224 11 -174 13 -193 44 -305 8 -32 20 -127 26 -210 7 -84 20 -189
31 -235 11 -48 24 -155 30 -252 5 -93 17 -193 25 -222 25 -91 42 -189 53 -308
6 -63 18 -137 26 -165 9 -27 22 -125 30 -217 7 -92 19 -177 25 -189 22 -40 30
-83 45 -234 8 -82 22 -172 30 -200 9 -27 22 -133 30 -235 10 -132 20 -202 35
-243 12 -35 26 -114 34 -200 7 -78 21 -159 29 -179 18 -43 24 -81 37 -233 5
-60 18 -139 29 -175 12 -36 26 -121 32 -190 6 -75 20 -157 34 -205 14 -44 29
-132 35 -198 6 -65 19 -140 30 -170 22 -62 27 -89 40 -227 5 -58 18 -132 28
-165 11 -33 25 -110 31 -170 8 -69 21 -129 36 -165 15 -36 28 -94 34 -157 6
-54 19 -136 30 -181 11 -47 25 -159 31 -260 9 -133 18 -197 36 -257 15 -49 30
-141 39 -238 9 -87 20 -169 26 -184 5 -14 19 -82 30 -151 11 -69 29 -143 41
-166 31 -61 42 -171 22 -223 -8 -24 -17 -43 -20 -43 -2 0 -20 9 -41 20 -22 11
-76 24 -129 30 -49 5 -117 19 -150 30 -32 11 -106 27 -164 35 -58 7 -130 23
-160 35 -36 14 -95 25 -175 31 -66 6 -160 21 -210 34 -49 13 -132 29 -184 35
-56 6 -109 19 -135 32 -36 19 -65 22 -261 29 -282 10 -930 10 -1150 0 -145 -6
-176 -10 -211 -29 -28 -14 -83 -26 -165 -36 -68 -9 -149 -24 -179 -35 -30 -10
-104 -24 -163 -29 -78 -8 -118 -16 -144 -32 -20 -11 -65 -28 -102 -36 -36 -8
-86 -23 -111 -34 -25 -10 -80 -23 -124 -29 -49 -7 -89 -19 -108 -32 -16 -12
-55 -28 -86 -36 -31 -8 -77 -26 -101 -39 -25 -13 -55 -24 -66 -24 -11 0 -51
-15 -90 -34 -139 -68 -201 -94 -240 -101 -22 -4 -51 -18 -65 -31 -14 -13 -45
-30 -70 -39 -24 -9 -54 -24 -65 -34 -11 -10 -35 -23 -53 -29 -18 -6 -44 -20
-58 -31 -14 -11 -71 -42 -128 -70 -57 -28 -108 -57 -115 -65 -6 -7 -26 -20
-44 -27 -18 -7 -53 -27 -78 -43 -51 -34 -96 -62 -141 -88 -16 -9 -37 -23 -46
-31 -9 -8 -33 -22 -52 -32 -32 -16 -86 -57 -135 -103 -11 -11 -36 -27 -55 -37
-19 -10 -48 -28 -63 -41 -16 -13 -35 -24 -42 -24 -7 0 -28 -12 -45 -26 -32
-28 -67 -54 -134 -101 -22 -15 -50 -37 -62 -48 -13 -11 -38 -32 -56 -46 -69
-55 -295 -255 -350 -308 -58 -58 -90 -88 -248 -231 -52 -47 -201 -192 -332
-322 -131 -131 -243 -238 -248 -238 -9 0 -161 -124 -190 -155 -8 -9 -35 -35
-60 -58 -24 -23 -63 -60 -86 -82 -24 -22 -57 -51 -74 -63 -29 -22 -32 -23 -55
-8 -13 8 -45 37 -72 63 -64 63 -176 162 -206 182 -69 47 -173 138 -271 240
-279 286 -535 534 -651 630 -70 58 -364 305 -400 336 -86 73 -127 105 -136
105 -5 0 -24 13 -42 30 -58 54 -102 87 -124 94 -13 4 -41 22 -63 39 -90 72
-105 83 -145 107 -85 51 -108 66 -142 93 -20 15 -41 27 -47 27 -11 0 -107 61
-156 98 -14 11 -43 27 -65 36 -22 10 -49 25 -60 36 -11 10 -41 28 -66 38 -26
11 -50 25 -53 30 -3 6 -28 18 -54 28 -26 10 -60 28 -77 40 -16 12 -43 24 -60
28 -16 4 -56 20 -87 37 -31 16 -63 29 -71 29 -7 0 -33 13 -58 29 -24 16 -64
35 -89 41 -25 7 -50 16 -56 21 -7 5 -40 21 -74 34 -35 14 -71 31 -80 40 -9 8
-50 23 -91 33 -41 11 -88 26 -105 35 -17 9 -53 21 -80 28 -27 6 -65 22 -84 34
-22 15 -64 28 -115 35 -44 6 -99 21 -122 32 -24 11 -72 26 -107 33 -35 7 -82
23 -105 35 -28 14 -75 24 -149 31 -59 5 -136 19 -172 30 -36 11 -114 27 -174
35 -60 8 -129 24 -155 35 -39 18 -76 23 -251 31 -270 12 -755 12 -1005 0 -163
-8 -210 -14 -254 -31 -35 -13 -111 -26 -210 -37 -85 -8 -173 -22 -196 -29 -62
-20 -93 -25 -216 -34 -91 -6 -125 -13 -169 -33 -35 -17 -89 -30 -150 -38 -52
-6 -117 -21 -145 -33 -40 -16 -73 -20 -169 -21 -146 -1 -149 1 -118 100 12 38
26 119 31 179 6 68 17 130 29 161 11 28 28 107 37 175 8 68 24 160 35 204 10
44 23 132 29 195 6 68 20 148 35 195 14 47 29 131 36 204 6 68 20 152 31 185
10 34 26 129 34 212 8 86 24 178 36 215 13 42 24 110 29 197 6 90 17 161 34
220 14 49 29 140 35 208 6 69 20 146 31 180 12 32 27 120 35 194 7 74 20 153
28 175 18 51 25 94 32 220 9 150 23 254 40 310 9 28 20 118 26 200 10 154 18
210 44 303 8 29 19 113 24 185 7 87 17 153 31 192 14 40 26 113 35 215 8 85
23 193 34 240 11 47 25 163 31 258 8 115 18 190 30 225 21 60 27 106 39 302 6
78 16 159 25 183 9 24 24 113 35 197 11 84 25 163 31 176 24 43 29 84 40 273
6 105 19 236 30 291 10 55 22 143 25 195 10 145 23 228 41 255 24 37 36 102
24 125 -10 18 -22 20 -144 20 -128 0 -247 -15 -310 -40 -16 -6 -79 -16 -139
-22 -101 -10 -283 -60 -308 -85 -12 -12 -59 -178 -65 -227 -2 -23 -9 -113 -14
-201 -6 -105 -17 -184 -30 -230 -11 -38 -25 -124 -31 -190 -10 -124 -20 -181
-40 -231 -6 -16 -17 -97 -25 -181 -9 -98 -21 -171 -34 -207 -12 -30 -27 -105
-34 -168 -8 -62 -19 -125 -24 -140 -18 -46 -31 -138 -42 -304 -7 -112 -17
-182 -31 -225 -12 -40 -26 -127 -35 -227 -8 -90 -21 -179 -29 -198 -14 -33
-27 -117 -40 -257 -4 -38 -17 -99 -31 -137 -14 -41 -28 -113 -34 -179 -6 -61
-17 -131 -24 -154 -20 -61 -24 -86 -36 -242 -12 -148 -18 -182 -46 -255 -10
-28 -19 -93 -24 -176 -5 -87 -14 -152 -28 -195 -11 -35 -26 -119 -32 -186 -7
-79 -20 -148 -35 -192 -16 -45 -29 -112 -35 -188 -6 -64 -20 -155 -31 -201
-11 -47 -26 -157 -34 -246 -9 -115 -19 -176 -34 -215 -13 -31 -26 -98 -32
-160 -6 -58 -19 -137 -29 -176 -11 -38 -26 -140 -34 -225 -11 -110 -23 -175
-41 -225 -15 -44 -25 -92 -25 -128 0 -85 -19 -241 -36 -295 -8 -26 -21 -124
-29 -217 -10 -115 -21 -190 -35 -230 -13 -36 -27 -118 -36 -205 -7 -80 -22
-188 -33 -240 -11 -52 -22 -133 -26 -180 -10 -135 -24 -227 -44 -299 -11 -36
-25 -129 -31 -206 -5 -77 -19 -174 -30 -215 -27 -101 -45 -293 -30 -320 6 -11
14 -20 18 -20 23 0 135 41 159 58 15 11 55 25 88 32 33 7 77 21 97 31 21 11
61 24 90 30 29 6 71 22 94 35 24 14 71 28 119 35 43 6 96 19 117 30 21 11 70
26 110 33 40 8 94 24 120 35 29 13 94 27 166 35 66 8 134 22 152 31 17 9 70
23 118 31 47 9 105 24 129 35 31 14 90 23 220 34 98 8 216 24 263 35 59 14
150 23 300 30 118 5 289 14 380 21 364 24 1230 -8 1387 -51 42 -12 136 -28
207 -34 101 -10 144 -19 186 -38 30 -14 79 -29 109 -32 30 -4 79 -18 110 -30
31 -13 92 -29 136 -35 43 -6 94 -20 112 -31 18 -11 60 -27 93 -35 33 -8 74
-24 92 -34 18 -10 56 -24 83 -30 28 -7 64 -20 81 -30 17 -10 48 -24 70 -31 21
-7 55 -22 74 -34 19 -13 60 -31 90 -41 30 -10 62 -24 71 -32 9 -8 41 -23 70
-34 30 -12 61 -27 69 -35 9 -7 36 -20 60 -29 25 -9 54 -24 65 -34 19 -18 38
-29 147 -84 27 -13 60 -36 74 -51 15 -14 32 -26 39 -26 6 0 29 -13 51 -30 21
-16 44 -30 50 -30 6 0 31 -16 55 -35 24 -19 49 -35 55 -35 6 0 31 -16 55 -35
24 -19 49 -35 55 -35 6 0 19 -9 29 -20 9 -10 55 -44 100 -75 46 -30 89 -62 96
-71 7 -8 26 -22 41 -30 28 -15 101 -68 197 -146 25 -21 60 -45 76 -54 33 -18
152 -115 200 -162 44 -43 176 -155 205 -174 55 -35 426 -401 474 -467 24 -32
226 -220 359 -332 53 -45 97 -86 97 -91 0 -4 13 -14 29 -23 17 -8 57 -38 91
-66 33 -28 75 -56 93 -64 34 -14 202 -133 316 -223 l29 -22 37 22 c19 13 54
38 76 56 23 17 47 32 54 32 7 0 27 11 43 25 48 40 131 93 178 114 24 11 44 24
44 28 0 5 32 31 71 58 104 73 266 222 757 700 108 105 212 206 232 225 100 97
275 256 307 279 19 14 49 39 65 54 17 15 42 34 57 42 15 7 51 35 81 62 29 26
68 57 86 68 17 11 58 40 91 65 58 45 119 88 177 125 18 11 41 28 51 38 11 10
49 36 85 59 36 22 76 49 90 59 65 48 159 109 168 109 6 0 29 16 52 35 23 19
49 35 58 35 10 0 37 14 61 30 24 17 49 30 56 30 7 0 30 13 51 29 22 15 58 34
79 41 22 7 52 21 67 32 15 10 45 25 68 33 23 8 53 23 68 34 15 10 47 24 71 31
25 6 58 22 75 35 17 12 49 28 71 35 22 7 53 23 68 36 16 13 38 24 50 24 12 0
47 12 77 26 30 14 78 33 105 41 28 8 64 24 82 34 17 11 73 26 123 35 50 8 104
21 119 29 15 7 67 21 114 30 48 9 108 26 134 37 33 15 89 24 192 33 81 7 182
23 226 34 187 50 879 70 1485 43 335 -14 480 -27 561 -48 31 -7 135 -20 230
-28 126 -10 188 -20 226 -35 29 -11 94 -25 145 -31 51 -6 127 -22 168 -35 41
-13 120 -29 176 -34 59 -6 119 -19 146 -31 25 -11 83 -27 129 -36 45 -8 99
-24 118 -34 20 -10 70 -23 111 -29 41 -7 98 -23 126 -36 29 -14 78 -28 110
-31 33 -4 85 -17 116 -30 32 -13 89 -28 128 -34 39 -5 92 -22 119 -36 38 -20
57 -24 85 -18 42 7 42 11 17 90 -11 32 -24 101 -30 152 -7 51 -20 115 -31 142
-11 27 -24 88 -30 136 -6 48 -22 113 -35 145 -18 41 -28 91 -35 176 -6 65 -19
161 -30 213 -16 83 -24 150 -45 400 -2 31 -13 76 -24 101 -14 30 -23 85 -30
170 -6 69 -19 154 -30 190 -22 70 -40 181 -41 242 0 21 -11 62 -25 91 -19 41
-28 85 -40 197 -8 79 -19 159 -24 178 -14 46 -28 160 -40 318 -7 87 -17 150
-31 185 -13 33 -24 97 -30 173 -11 132 -26 251 -40 305 -5 19 -16 82 -25 138
-8 57 -25 124 -36 150 -15 32 -25 89 -35 191 -8 80 -24 182 -34 226 -11 45
-24 134 -30 199 -7 80 -17 134 -31 165 -16 35 -24 88 -35 216 -7 94 -23 210
-34 258 -12 49 -25 137 -30 198 -6 60 -17 128 -26 151 -26 73 -32 108 -43 261
-6 82 -20 183 -31 225 -11 43 -25 138 -30 212 -6 96 -16 157 -33 210 -17 51
-29 121 -37 220 -7 82 -20 169 -31 200 -10 30 -25 105 -33 165 -8 61 -24 136
-35 167 -12 33 -25 108 -32 180 -6 68 -21 173 -34 233 -13 61 -26 148 -30 195
-4 46 -18 126 -31 177 -17 66 -27 144 -34 266 -8 118 -17 191 -30 232 -11 33
-27 123 -35 200 -18 152 -30 189 -84 245 -32 33 -44 39 -111 49 -41 6 -124 23
-185 37 -78 19 -170 30 -315 40 -269 18 -257 18 -275 -10z"/>
<path d="M21674 14190 c-39 -4 -80 -12 -90 -18 -20 -10 -141 -26 -275 -37 -42
-3 -116 -17 -165 -30 -52 -14 -145 -29 -224 -36 -75 -6 -161 -20 -193 -30 -32
-11 -91 -26 -132 -34 -40 -7 -94 -23 -119 -35 -25 -11 -81 -27 -124 -34 -43
-8 -92 -21 -108 -29 -16 -8 -65 -22 -109 -32 -44 -9 -96 -27 -115 -40 -19 -12
-54 -26 -78 -29 -24 -4 -65 -17 -92 -31 -26 -13 -69 -29 -96 -36 -27 -7 -61
-20 -75 -30 -14 -10 -55 -26 -90 -35 -35 -10 -74 -26 -87 -35 -12 -9 -44 -22
-71 -29 -27 -6 -57 -20 -67 -31 -9 -11 -39 -26 -66 -34 -27 -8 -61 -23 -76
-33 -15 -10 -48 -27 -74 -37 -26 -9 -55 -26 -64 -36 -9 -10 -33 -24 -53 -30
-20 -7 -49 -22 -66 -34 -16 -12 -45 -27 -63 -33 -18 -6 -45 -21 -60 -33 -15
-11 -64 -42 -109 -68 -44 -26 -89 -53 -98 -61 -18 -15 -72 -47 -150 -91 -22
-12 -46 -30 -52 -39 -7 -10 -29 -24 -50 -33 -21 -8 -51 -27 -68 -41 -16 -14
-35 -26 -41 -26 -6 0 -21 -12 -35 -26 -13 -14 -37 -32 -54 -39 -16 -7 -42 -23
-57 -36 -15 -13 -47 -39 -70 -57 -24 -18 -62 -47 -84 -65 -23 -18 -65 -50 -94
-72 -164 -125 -645 -571 -691 -642 -16 -24 -172 -191 -352 -377 -49 -50 -113
-123 -143 -163 -31 -39 -82 -99 -115 -133 -32 -34 -59 -66 -59 -71 0 -5 -20
-19 -45 -31 -40 -20 -47 -20 -71 -7 -15 8 -39 29 -53 48 -70 90 -242 281 -374
415 -110 111 -212 225 -244 271 -28 40 -130 142 -288 288 -207 190 -256 234
-317 283 -32 25 -58 49 -58 54 0 5 -14 17 -31 25 -17 9 -66 43 -108 76 -43 32
-83 59 -88 59 -10 0 -61 35 -142 97 -13 10 -43 29 -66 43 -65 38 -173 114
-274 192 -33 26 -78 56 -100 67 -22 12 -43 25 -46 31 -4 6 -30 22 -58 36 -29
15 -59 32 -67 39 -8 7 -32 18 -53 25 -21 6 -50 22 -65 35 -15 12 -43 30 -62
39 -19 9 -46 23 -60 31 -14 8 -45 23 -70 34 -25 11 -56 26 -70 34 -56 33 -167
85 -195 91 -16 4 -47 19 -67 33 -20 13 -56 29 -79 34 -23 6 -54 18 -69 29 -14
10 -49 24 -76 31 -27 7 -67 22 -89 34 -22 13 -65 31 -95 40 -30 10 -65 24 -77
32 -12 8 -49 21 -81 28 -33 8 -76 25 -95 38 -20 13 -55 27 -79 30 -24 3 -63
15 -88 26 -25 10 -83 27 -130 36 -47 9 -99 25 -116 36 -16 10 -63 23 -103 30
-41 6 -99 20 -130 30 -31 11 -101 24 -156 30 -99 10 -198 26 -345 53 -89 17
-401 35 -735 43 -359 9 -857 -20 -974 -57 -35 -11 -117 -25 -182 -30 -119 -11
-233 -43 -270 -76 -27 -24 -48 -120 -60 -274 -8 -106 -17 -164 -35 -215 -16
-46 -28 -110 -35 -190 -5 -66 -16 -145 -24 -176 -23 -87 -21 -97 22 -105 27
-5 58 0 117 19 45 15 104 29 131 33 28 3 79 19 115 34 45 19 91 30 150 34 47
4 130 18 185 31 144 35 458 49 890 41 374 -6 539 -17 630 -41 33 -9 115 -22
182 -30 84 -9 135 -20 160 -34 21 -11 81 -27 133 -35 53 -9 116 -22 140 -31
25 -9 92 -23 149 -31 57 -8 125 -24 150 -35 25 -11 81 -27 124 -35 43 -8 95
-24 116 -35 21 -11 66 -24 100 -30 34 -5 76 -20 96 -33 20 -14 50 -28 68 -32
18 -3 52 -17 77 -29 25 -13 72 -29 105 -35 33 -7 82 -25 111 -41 28 -16 60
-29 71 -29 11 0 44 -13 74 -29 30 -15 68 -32 86 -35 18 -4 48 -18 66 -30 19
-13 52 -29 73 -36 22 -7 53 -20 70 -30 17 -9 54 -25 82 -34 29 -10 54 -22 58
-27 3 -5 58 -35 122 -66 64 -31 135 -70 156 -85 21 -15 44 -28 51 -28 7 0 29
-13 50 -30 21 -16 44 -30 51 -30 7 0 28 -13 46 -29 18 -15 47 -36 63 -45 17
-9 57 -37 90 -61 33 -25 74 -51 91 -59 17 -8 37 -22 44 -31 8 -9 35 -27 60
-40 25 -13 52 -31 60 -40 7 -9 27 -23 44 -32 17 -9 55 -35 84 -57 30 -23 68
-50 86 -61 35 -22 71 -49 142 -107 25 -21 49 -38 54 -38 5 0 46 -31 91 -70 44
-38 84 -70 87 -70 4 0 30 -21 57 -47 28 -26 64 -57 82 -68 73 -46 553 -538
863 -884 36 -40 69 -79 73 -87 16 -27 49 -14 102 41 29 30 66 71 82 92 27 37
228 246 424 442 88 89 116 121 176 203 12 17 36 40 55 53 18 12 61 49 95 81
34 33 80 75 103 94 23 19 55 47 71 63 16 15 34 27 39 27 5 0 40 26 77 58 38
32 79 65 93 72 14 7 55 39 91 72 36 32 69 58 74 58 4 0 41 26 83 58 167 128
267 197 305 211 14 6 33 21 42 34 9 14 36 32 60 42 25 9 45 21 45 26 0 5 17
17 38 28 20 10 46 29 57 41 11 12 37 32 59 44 21 11 68 38 105 58 36 21 84 46
106 56 22 11 58 31 79 46 21 14 46 26 56 26 9 0 25 9 35 20 9 10 38 27 64 36
25 10 60 27 76 39 17 12 48 28 70 35 22 7 52 23 67 35 14 12 46 27 71 33 24 7
50 18 57 27 7 8 38 22 69 31 31 9 74 27 97 40 23 13 67 29 100 35 32 6 74 19
94 29 20 10 62 25 94 34 32 8 68 24 80 34 11 11 48 25 81 32 33 6 76 20 96 30
20 10 65 24 100 31 35 6 89 22 119 34 30 13 100 30 155 38 55 9 119 23 143 31
24 9 84 23 134 31 50 9 109 25 132 37 29 15 79 24 190 35 83 7 178 21 211 29
175 46 1264 45 1462 -1 34 -8 113 -19 175 -25 158 -14 189 -20 223 -40 17 -10
80 -25 146 -34 63 -9 136 -23 162 -32 54 -18 71 -11 80 34 8 42 -12 211 -33
273 -12 35 -23 110 -29 190 -6 93 -16 151 -30 189 -12 30 -26 95 -32 144 -6
50 -15 100 -20 112 -15 41 -53 56 -176 69 -121 14 -169 22 -283 49 -36 8 -128
20 -205 26 -77 6 -174 21 -215 32 -68 19 -107 21 -405 23 -181 2 -362 0 -401
-5z"/>
<path d="M15985 7469 c-639 -7 -960 -16 -1165 -30 -74 -5 -298 -14 -497 -19
-210 -6 -409 -16 -475 -25 -125 -17 -388 -44 -429 -45 -42 0 -149 -77 -166
-119 -13 -31 -13 -38 0 -65 22 -47 88 -117 149 -159 52 -35 61 -38 169 -48 63
-5 170 -19 239 -31 108 -18 185 -22 575 -27 740 -11 4543 -12 4724 -1 114 6
182 15 225 29 33 11 104 25 156 31 66 8 107 18 135 34 22 13 51 27 65 31 38
12 116 95 123 133 9 45 -15 98 -54 120 -17 9 -47 27 -65 39 -44 29 -55 30
-369 48 -143 8 -276 19 -295 24 -63 18 -261 31 -455 31 -104 0 -323 7 -485 15
-162 7 -403 17 -535 20 -132 3 -300 8 -374 11 -219 9 -582 10 -1196 3z"/>
</g>
</svg>
